<svg width="24" height="25" viewBox="0 0 24 25" fill="none" xmlns="http://www.w3.org/2000/svg">
<path d="M11.9999 22.6441C10.8749 22.6441 9.98389 21.7264 9.98389 20.616H13.9679C13.9679 21.815 13.0959 22.6441 11.9989 22.6441H11.9999ZM17.9999 11.3467V16.4649L20.0159 18.5415V19.5551H3.98489V18.5415L6.00089 16.4649V11.3467C6.00089 8.15972 7.64189 5.55268 10.5009 4.82857V4.10445C10.5009 3.23509 11.1569 2.55939 12.0009 2.55939C12.8449 2.55939 13.5009 3.23509 13.5009 4.10445V4.82857C16.3599 5.55268 18.0009 8.20813 18.0009 11.3467H17.9999ZM19.9689 10.8152C19.8279 8.06289 18.4689 5.69689 16.4529 4.20024L17.8589 2.752C20.2499 4.63492 21.8429 7.53242 21.9839 10.8152H19.9679H19.9689ZM7.59389 4.20024C5.53089 5.69689 4.17189 8.06289 4.03089 10.8152H2.01489C2.15589 7.53139 3.74889 4.63492 6.13989 2.752L7.59389 4.20024Z" fill="#1A1A1A"/>
</svg>
