<svg width="149" height="19" viewBox="0 0 149 19" fill="none" xmlns="http://www.w3.org/2000/svg">
<path d="M0.344 19V1.72H4.184L10.04 8.704L15.872 1.72H19.736V19H15.992V7.408L10.04 14.512L4.064 7.432V19H0.344ZM22.5136 19V5.08H26.1856V19H22.5136ZM22.5136 4.216V0.519999H26.1856V4.216H22.5136ZM31.6884 19C30.7444 19 29.9284 18.656 29.2404 17.968C28.5524 17.28 28.2084 16.464 28.2084 15.52V8.56C28.2084 7.616 28.5524 6.8 29.2404 6.112C29.9284 5.424 30.7444 5.08 31.6884 5.08H42.2964V8.752H32.6724C32.1444 8.752 31.8804 8.752 31.8804 8.752C31.8804 8.752 31.8804 9.016 31.8804 9.544V14.536C31.8804 15.064 31.8804 15.328 31.8804 15.328C31.8804 15.328 32.1444 15.328 32.6724 15.328H42.3204V19H31.6884ZM44.6855 19V8.56C44.6855 7.616 45.0295 6.8 45.7175 6.112C46.4055 5.424 47.2295 5.08 48.1895 5.08H55.8695V8.752H49.1495C48.6215 8.752 48.3575 8.752 48.3575 8.752C48.3575 8.752 48.3575 9.016 48.3575 9.544V19H44.6855ZM60.8915 19C59.9475 19 59.1315 18.656 58.4435 17.968C57.7555 17.28 57.4115 16.464 57.4115 15.52V8.56C57.4115 7.616 57.7555 6.8 58.4435 6.112C59.1315 5.424 59.9475 5.08 60.8915 5.08H68.0435C69.0035 5.08 69.8195 5.424 70.4915 6.112C71.1795 6.8 71.5235 7.616 71.5235 8.56V15.52C71.5235 16.464 71.1795 17.28 70.4915 17.968C69.8195 18.656 69.0035 19 68.0435 19H60.8915ZM61.8755 15.328H67.0595C67.5875 15.328 67.8515 15.328 67.8515 15.328C67.8515 15.328 67.8515 15.064 67.8515 14.536V9.544C67.8515 9.016 67.8515 8.752 67.8515 8.752C67.8515 8.752 67.5875 8.752 67.0595 8.752H61.8755C61.3475 8.752 61.0835 8.752 61.0835 8.752C61.0835 8.752 61.0835 9.016 61.0835 9.544V14.536C61.0835 15.064 61.0835 15.328 61.0835 15.328C61.0835 15.328 61.3475 15.328 61.8755 15.328Z" fill="#D90429"/>
<path d="M81.9551 19V1.72H95.0111C95.9711 1.72 96.8031 2.072 97.5071 2.776C98.2111 3.464 98.5631 4.296 98.5631 5.272V8.512C98.5631 8.72 98.5471 8.92 98.5151 9.112C98.4991 9.288 98.4591 9.456 98.3951 9.616C98.6351 9.92 98.8351 10.272 98.9951 10.672C99.1551 11.072 99.2351 11.472 99.2351 11.872V15.448C99.2351 16.424 98.8831 17.264 98.1791 17.968C97.4751 18.656 96.6351 19 95.6591 19H81.9551ZM86.4671 15.256H94.6751C95.2031 15.256 95.4671 15.256 95.4671 15.256C95.4671 15.256 95.4671 14.992 95.4671 14.464V12.88C95.4671 12.352 95.4671 12.088 95.4671 12.088C95.4671 12.088 95.2031 12.088 94.6751 12.088H86.4671C85.9391 12.088 85.6751 12.088 85.6751 12.088C85.6751 12.088 85.6751 12.352 85.6751 12.88V14.464C85.6751 14.992 85.6751 15.256 85.6751 15.256C85.6751 15.256 85.9391 15.256 86.4671 15.256ZM86.4671 8.344H94.0031C94.5311 8.344 94.7951 8.344 94.7951 8.344C94.7951 8.344 94.7951 8.08 94.7951 7.552V6.256C94.7951 5.728 94.7951 5.464 94.7951 5.464C94.7951 5.464 94.5311 5.464 94.0031 5.464H86.4671C85.9391 5.464 85.6751 5.464 85.6751 5.464C85.6751 5.464 85.6751 5.728 85.6751 6.256V7.552C85.6751 8.08 85.6751 8.344 85.6751 8.344C85.6751 8.344 85.9391 8.344 86.4671 8.344ZM105.236 19C104.276 19 103.452 18.656 102.764 17.968C102.092 17.28 101.756 16.464 101.756 15.52V10.192H112.196V9.544C112.196 9.016 112.196 8.752 112.196 8.752C112.196 8.752 111.932 8.752 111.404 8.752H101.756V5.08H112.388C113.348 5.08 114.164 5.424 114.836 6.112C115.524 6.8 115.868 7.616 115.868 8.56V19H105.236ZM106.22 15.328H112.196V13.408H105.428V14.536C105.428 15.064 105.428 15.328 105.428 15.328C105.428 15.328 105.692 15.328 106.22 15.328ZM118.257 19V5.08H128.889C129.849 5.08 130.665 5.424 131.337 6.112C132.025 6.8 132.369 7.616 132.369 8.56V19H128.697V9.544C128.697 9.016 128.697 8.752 128.697 8.752C128.697 8.752 128.433 8.752 127.905 8.752H122.721C122.193 8.752 121.929 8.752 121.929 8.752C121.929 8.752 121.929 9.016 121.929 9.544V19H118.257ZM134.968 19V0.519999H138.64V10.192H140.512L145.24 5.08H148.936V6.328L143.752 12.04L148.936 17.752V19H145.24L140.512 13.888H138.64V19H134.968Z" fill="black"/>
</svg>
